<svg width="384" height="384" viewBox="0 0 384 384" fill="none" xmlns="http://www.w3.org/2000/svg">
<path d="M8.49979 182.109L98.3301 25.2255L128.667 42.2052C150.358 54.3454 157.993 81.8392 145.669 103.426L92.2719 196.954L79.2233 219.323L59.493 254.426L46.6019 231.97L126.254 92.2683C132.421 81.4519 128.569 67.6816 117.685 61.6349L106.252 55.2837L26.0971 196.954L59.1066 255.113L104.388 334.895L180.937 250.204C186.858 243.653 197.142 243.653 203.063 250.204L279.612 334.895L324.922 255.063L337.721 232.512L353.732 204.303C356.319 199.744 356.323 194.161 353.742 189.599L277.748 55.2837L266.096 61.7571C255.199 67.8107 251.353 81.6035 257.545 92.4222L337.351 231.865L324.648 254.578L304.777 219.323L304.514 219.776L280.484 261.343C275.436 270.073 263.36 271.381 256.56 263.934L197.506 199.256C194.55 196.018 189.45 196.018 186.494 199.256L127.44 263.934C120.64 271.381 108.564 270.073 103.516 261.343L79.4603 219.733L92.534 197.42L117.437 241.691L180.966 171.81C186.882 165.302 197.118 165.302 203.034 171.81L266.563 241.691L291.478 197.398L291.728 196.954L238.331 103.335C226.005 81.7232 233.679 54.2065 255.41 42.0928L285.67 25.2255L375.5 182.109C380.765 191.303 380.757 202.6 375.479 211.786L293.546 354.411C288.505 363.186 276.372 364.498 269.571 357.004L197.522 277.602C194.563 274.341 189.437 274.341 186.478 277.602L114.429 357.004C107.628 364.498 95.4954 363.186 90.4541 354.411L33.4088 255.11L8.52075 211.786C3.24342 202.6 3.23544 191.303 8.49979 182.109Z" fill="url(#paint0_linear_853_9763)"/>
<path d="M92.2714 196.954L79.2229 219.323L79.4599 219.733L92.5336 197.42L92.2714 196.954Z" fill="url(#paint1_linear_853_9763)"/>
<path d="M51.7284 223.05L46.2362 232.465L59.0958 255.105L64.6715 245.192L51.7284 223.05Z" fill="url(#paint2_linear_853_9763)"/>
<path d="M324.921 255.026L337.73 232.475L332.374 223.299L319.809 245.946L324.921 255.026Z" fill="url(#paint3_linear_853_9763)"/>
<defs>
<linearGradient id="paint0_linear_853_9763" x1="-1.86407" y1="196.954" x2="508.893" y2="301.342" gradientUnits="userSpaceOnUse">
<stop offset="0.00495377" stop-color="#D900C3"/>
<stop offset="0.261763" stop-color="#8900D9"/>
<stop offset="0.461732" stop-color="#4C42D1"/>
<stop offset="0.773303" stop-color="#1EAEF9"/>
</linearGradient>
<linearGradient id="paint1_linear_853_9763" x1="-1.86447" y1="196.954" x2="508.893" y2="301.342" gradientUnits="userSpaceOnUse">
<stop offset="0.00495377" stop-color="#D900C3"/>
<stop offset="0.261763" stop-color="#8900D9"/>
<stop offset="0.461732" stop-color="#4C42D1"/>
<stop offset="0.773303" stop-color="#1EAEF9"/>
</linearGradient>
<linearGradient id="paint2_linear_853_9763" x1="65.2429" y1="237.963" x2="46.6021" y2="249.147" gradientUnits="userSpaceOnUse">
<stop offset="0.296114" stop-color="#B201CE" stop-opacity="0.85"/>
<stop offset="1" stop-opacity="0.7"/>
</linearGradient>
<linearGradient id="paint3_linear_853_9763" x1="337.397" y1="249.148" x2="311.287" y2="234.258" gradientUnits="userSpaceOnUse">
<stop stop-opacity="0.7"/>
<stop offset="0.435214" stop-color="#347CE7"/>
</linearGradient>
</defs>
</svg>
