<?xml version="1.0" standalone="no"?>
<!DOCTYPE svg PUBLIC "-//W3C//DTD SVG 20010904//EN"
 "http://www.w3.org/TR/2001/REC-SVG-20010904/DTD/svg10.dtd">
<svg version="1.0" xmlns="http://www.w3.org/2000/svg"
 width="700.000000pt" height="700.000000pt" viewBox="0 0 700.000000 700.000000"
 preserveAspectRatio="xMidYMid meet">
<metadata>
Created by potrace 1.14, written by Peter Selinger 2001-2017
</metadata>
<g transform="translate(0.000000,700.000000) scale(0.100000,-0.100000)"
fill="#000000" stroke="none">
<path d="M1545 6107 c-137 -237 -256 -445 -266 -462 -11 -16 -22 -37 -26 -45
-4 -8 -53 -95 -110 -194 -57 -98 -103 -180 -103 -181 0 -2 -17 -32 -38 -66
-21 -35 -52 -89 -69 -119 -16 -30 -39 -71 -50 -90 -37 -63 -284 -494 -308
-535 -12 -22 -111 -194 -219 -383 -236 -412 -240 -420 -258 -503 -30 -133 -8
-271 64 -398 17 -31 39 -69 48 -86 26 -46 529 -922 774 -1348 119 -208 229
-399 243 -425 14 -26 37 -64 50 -84 12 -21 23 -41 23 -45 0 -3 6 -14 14 -22 7
-9 30 -47 51 -86 21 -38 44 -79 51 -90 7 -11 25 -43 41 -71 104 -186 202 -350
226 -379 72 -87 224 -115 325 -60 52 28 65 40 207 199 87 98 87 97 160 177 28
30 113 124 190 209 77 85 144 160 150 166 15 16 177 194 202 222 42 46 178
196 219 242 23 25 52 57 65 71 13 15 60 66 104 114 44 48 81 91 83 96 2 4 19
18 37 29 43 26 106 28 142 4 32 -20 23 -11 133 -134 47 -52 92 -102 100 -110
8 -8 53 -58 100 -110 47 -52 92 -101 100 -110 8 -9 51 -56 95 -105 44 -49 99
-109 122 -134 23 -25 50 -55 60 -67 19 -22 177 -196 203 -224 8 -9 58 -63 110
-120 52 -58 97 -107 100 -110 3 -3 46 -50 95 -105 50 -55 105 -116 123 -136
18 -20 55 -49 83 -64 104 -56 255 -29 326 60 25 31 159 256 233 390 15 28 51
91 80 140 29 50 62 106 72 125 11 19 46 80 78 135 32 55 68 118 80 140 21 38
196 343 446 777 63 108 123 212 134 230 11 18 23 40 27 48 4 8 56 100 117 205
60 104 134 233 164 285 105 183 133 239 151 311 29 116 16 260 -34 359 -13 25
-91 164 -174 309 -83 145 -151 265 -151 267 0 3 -8 17 -19 32 -16 24 -159 272
-217 377 -12 22 -62 110 -111 195 -49 85 -101 175 -115 200 -14 25 -44 77 -67
117 -22 39 -49 87 -60 105 -10 18 -123 215 -251 438 -128 223 -241 421 -252
440 -233 411 -239 420 -261 408 -12 -6 -71 -39 -132 -73 -60 -34 -130 -73
-155 -87 -315 -174 -348 -196 -429 -278 -149 -152 -230 -349 -232 -562 -2
-161 41 -305 143 -478 24 -42 575 -1006 786 -1378 l150 -264 -81 -141 c-44
-78 -91 -162 -105 -187 -14 -25 -75 -133 -135 -240 -61 -107 -115 -205 -121
-217 -6 -13 -14 -23 -17 -23 -3 0 -23 19 -44 43 -32 35 -109 121 -208 229 -12
13 -62 69 -112 123 -49 54 -97 106 -105 115 -16 18 -141 156 -181 201 -13 14
-62 68 -109 119 -47 52 -92 101 -100 110 -18 20 -191 210 -205 226 -66 76
-148 151 -185 167 -63 28 -163 27 -224 -2 -45 -22 -74 -48 -151 -132 -21 -24
-82 -91 -135 -149 -117 -129 -100 -110 -195 -216 -44 -49 -105 -116 -136 -149
-30 -33 -76 -82 -100 -110 -25 -27 -72 -79 -105 -115 -33 -36 -77 -85 -99
-109 -22 -24 -45 -49 -51 -55 -12 -14 -208 -230 -242 -268 -29 -33 -37 -34
-46 -10 -3 9 -10 24 -16 32 -9 14 -147 259 -338 600 -41 74 -78 137 -81 140
-4 3 -6 10 -6 15 0 11 266 484 296 527 11 15 19 29 19 31 0 2 32 60 72 128 39
68 81 142 93 164 12 22 131 231 265 465 134 234 256 454 271 490 151 359 16
780 -318 997 -46 29 -85 53 -87 53 -2 0 -63 34 -135 75 -73 41 -134 75 -137
75 -2 0 -21 11 -42 23 -20 13 -71 42 -113 65 l-77 42 -247 -433z m518 -184
c140 -78 202 -134 245 -219 43 -86 56 -164 40 -254 -10 -56 -31 -105 -85 -198
-24 -41 -43 -75 -43 -76 0 -2 -39 -70 -86 -152 -47 -82 -102 -178 -122 -214
-19 -36 -43 -77 -54 -92 -10 -14 -18 -29 -18 -32 0 -3 -22 -43 -50 -90 -27
-47 -50 -88 -50 -92 0 -4 -6 -15 -14 -23 -7 -9 -27 -41 -43 -71 -16 -30 -112
-198 -212 -374 -100 -175 -191 -335 -202 -355 -11 -20 -30 -52 -41 -71 -11
-19 -97 -170 -192 -335 -94 -165 -175 -308 -181 -317 -83 -143 -105 -185 -100
-198 8 -23 -29 27 -51 68 -10 21 -57 105 -104 187 -47 83 -89 157 -93 165 -4
8 -11 22 -17 30 -26 40 -98 169 -104 186 -4 15 33 90 135 270 78 137 171 303
209 369 37 66 78 138 90 160 13 22 34 60 48 85 14 25 82 144 150 265 69 121
144 254 167 295 50 88 36 64 255 450 95 168 222 394 284 502 61 109 113 198
115 198 1 0 58 -30 124 -67z m3096 -101 c52 -92 129 -228 172 -302 42 -75 89
-158 105 -185 15 -28 102 -183 194 -345 92 -162 178 -315 192 -340 14 -25 102
-180 195 -345 93 -165 181 -320 195 -345 14 -25 54 -94 88 -155 35 -60 71
-123 80 -140 9 -16 31 -55 49 -87 40 -70 52 -110 52 -168 -1 -83 13 -53 -161
-360 -70 -124 -137 -243 -149 -265 -11 -22 -21 -32 -21 -22 0 9 -29 65 -64
124 -56 96 -620 1078 -684 1193 -14 25 -50 88 -80 140 -30 52 -64 111 -75 130
-11 19 -54 96 -97 170 -43 74 -86 151 -97 170 -11 19 -96 168 -190 331 -93
163 -179 319 -191 346 -27 63 -36 161 -21 233 28 135 103 221 284 322 66 37
122 67 125 68 3 0 47 -76 99 -168z m-1524 -2494 c63 -68 218 -236 255 -278 8
-9 56 -61 105 -115 50 -54 95 -103 100 -109 6 -6 57 -63 115 -126 58 -63 110
-120 115 -126 35 -39 193 -211 205 -224 8 -9 51 -55 94 -104 104 -114 152
-141 256 -140 85 0 134 20 188 75 17 18 111 170 208 338 98 168 196 338 219
376 22 39 44 79 48 89 4 10 9 17 11 15 6 -6 178 -308 280 -492 l88 -158 -137
-242 c-76 -133 -149 -262 -163 -287 -13 -25 -48 -85 -77 -135 -44 -77 -134
-236 -220 -388 -91 -164 -218 -383 -224 -390 -7 -7 -67 55 -162 164 -11 13
-37 42 -58 64 -20 22 -101 112 -180 200 -79 88 -149 165 -155 170 -6 6 -49 53
-96 105 -84 94 -151 168 -180 200 -8 9 -35 38 -59 66 -24 27 -65 72 -90 99
-25 28 -84 93 -131 145 -47 52 -89 100 -95 106 -5 6 -48 53 -95 105 -120 133
-147 157 -205 178 -98 37 -221 10 -290 -64 -11 -12 -56 -61 -100 -110 -44 -48
-85 -93 -91 -99 -5 -6 -34 -38 -64 -71 -101 -113 -205 -229 -220 -245 -8 -9
-55 -61 -105 -116 -49 -54 -94 -104 -100 -110 -36 -39 -168 -186 -201 -223
-21 -25 -48 -54 -59 -66 -11 -11 -58 -63 -105 -114 -47 -52 -89 -99 -95 -105
-5 -6 -46 -51 -90 -100 -44 -50 -101 -112 -126 -139 l-46 -50 -20 34 c-11 19
-32 54 -45 79 -14 25 -79 140 -145 255 -114 200 -316 556 -363 640 -12 22 -69
122 -126 222 -137 239 -131 225 -106 259 11 16 66 112 122 214 193 349 223
401 225 398 5 -5 245 -420 245 -423 0 -2 18 -33 41 -70 22 -37 50 -84 61 -104
111 -198 141 -236 212 -274 31 -16 59 -22 116 -22 115 0 144 19 308 198 75 83
144 159 152 167 8 9 33 36 55 61 23 24 90 98 151 164 60 66 123 135 139 154
17 19 40 43 51 55 12 12 72 77 135 146 62 69 128 141 145 160 18 19 41 45 51
57 110 126 137 145 208 139 47 -3 53 -7 120 -78z"/>
</g>
</svg>
