<svg width="128" height="128" viewBox="0 0 128 128" fill="none" xmlns="http://www.w3.org/2000/svg">
<path d="M2.83327 60.7031L32.7767 8.40854L42.8891 14.0685C50.1192 18.1152 52.6644 27.2798 48.5563 34.4752L30.7573 65.6513L26.4078 73.1076L19.831 84.8086L15.534 77.3235L42.0845 30.7561C44.1402 27.1507 42.8562 22.5606 39.2282 20.545L35.4175 18.428L8.69903 65.6513L19.7022 85.0378L34.7961 111.632L60.3122 83.4012C62.2859 81.2176 65.7141 81.2176 67.6878 83.4012L93.2039 111.632L108.307 85.0211L112.574 77.5041L117.911 68.1011C118.773 66.5814 118.774 64.7204 117.914 63.1996L92.5825 18.428L88.6985 20.5857C85.0663 22.6036 83.7843 27.2012 85.8482 30.8074L112.45 77.2884L108.216 84.8593L101.592 73.1076L101.505 73.2588L93.4945 87.1144C91.8121 90.0245 87.7866 90.4605 85.5201 87.9782L65.8355 66.4188C64.8499 65.3394 63.1501 65.3394 62.1645 66.4188L42.4799 87.9782C40.2134 90.4605 36.1879 90.0245 34.5055 87.1144L26.4868 73.2442L30.8447 65.8066L39.1456 80.5639L60.3218 57.27C62.2941 55.1006 65.7059 55.1006 67.6781 57.27L88.8544 80.5639L97.1595 65.7992L97.2427 65.6513L79.4438 34.445C75.3349 27.2411 77.8928 18.0689 85.1367 14.031L95.2233 8.40854L125.167 60.7031C126.922 63.7677 126.919 67.5332 125.16 70.5954L97.8486 118.137C96.1682 121.062 92.1241 121.5 89.8571 119.001L65.8406 92.5341C64.8543 91.4471 63.1457 91.4471 62.1594 92.5341L38.1429 119.001C35.8759 121.5 31.8318 121.062 30.1514 118.137L11.1363 85.0366L2.84025 70.5954C1.08114 67.5332 1.07848 63.7677 2.83327 60.7031Z" fill="url(#paint0_linear_122_7940)"/>
<path d="M30.757 65.6512L26.4075 73.1075L26.4865 73.2442L30.8444 65.8066L30.757 65.6512Z" fill="url(#paint1_linear_122_7940)"/>
<path d="M17.2428 74.3503L15.4121 77.4887L19.6987 85.0351L21.5572 81.731L17.2428 74.3503Z" fill="url(#paint2_linear_122_7940)"/>
<path d="M108.307 85.0085L112.577 77.4918L110.791 74.4331L106.603 81.9821L108.307 85.0085Z" fill="url(#paint3_linear_122_7940)"/>
<defs>
<linearGradient id="paint0_linear_122_7940" x1="-0.621358" y1="65.6513" x2="169.631" y2="100.447" gradientUnits="userSpaceOnUse">
<stop offset="0.00495377" stop-color="#D900C3"/>
<stop offset="0.261763" stop-color="#8900D9"/>
<stop offset="0.461732" stop-color="#4C42D1"/>
<stop offset="0.773303" stop-color="#1EAEF9"/>
</linearGradient>
<linearGradient id="paint1_linear_122_7940" x1="-0.621653" y1="65.6512" x2="169.631" y2="100.447" gradientUnits="userSpaceOnUse">
<stop offset="0.00495377" stop-color="#D900C3"/>
<stop offset="0.261763" stop-color="#8900D9"/>
<stop offset="0.461732" stop-color="#4C42D1"/>
<stop offset="0.773303" stop-color="#1EAEF9"/>
</linearGradient>
<linearGradient id="paint2_linear_122_7940" x1="21.7477" y1="79.3212" x2="15.5341" y2="83.0493" gradientUnits="userSpaceOnUse">
<stop offset="0.296114" stop-color="#B201CE" stop-opacity="0.85"/>
<stop offset="1" stop-opacity="0.7"/>
</linearGradient>
<linearGradient id="paint3_linear_122_7940" x1="112.466" y1="83.0493" x2="103.762" y2="78.086" gradientUnits="userSpaceOnUse">
<stop stop-opacity="0.7"/>
<stop offset="0.435214" stop-color="#347CE7"/>
</linearGradient>
</defs>
</svg>
