<svg width="24" height="24" viewBox="0 0 24 24" fill="none" xmlns="http://www.w3.org/2000/svg">
<path d="M0.531237 11.3818L6.14563 1.5766L8.04171 2.63783C9.39735 3.39659 9.87457 5.11496 9.10431 6.46411L5.76699 12.3096L4.95146 13.7077L3.71832 15.9016L2.91262 14.4981L7.89085 5.76678C8.27629 5.09075 8.03554 4.23011 7.35528 3.85219L6.64078 3.45524L1.63107 12.3096L3.69416 15.9446L6.52427 20.931L11.3085 15.6377C11.6786 15.2283 12.3214 15.2283 12.6915 15.6377L17.4757 20.931L20.3076 15.9415L21.1076 14.532L22.1082 12.7689C22.2699 12.484 22.2702 12.1351 22.1088 11.8499L17.3592 3.45524L16.631 3.85982C15.9499 4.23818 15.7096 5.10022 16.0965 5.77639L21.0844 14.4916L20.2905 15.9111L19.0485 13.7077L19.0322 13.736L17.5302 16.334C17.2148 16.8796 16.46 16.9613 16.035 16.4959L12.3441 12.4535C12.1594 12.2511 11.8406 12.2511 11.6559 12.4535L7.96497 16.4959C7.54001 16.9613 6.78522 16.8796 6.46978 16.334L4.96627 13.7333L5.78337 12.3387L7.33981 15.1057L11.3103 10.7381C11.6801 10.3314 12.3199 10.3314 12.6897 10.7381L16.6602 15.1057L18.2174 12.3374L18.233 12.3096L14.8957 6.45843C14.1253 5.10771 14.6049 3.38791 15.9631 2.63081L17.8544 1.5766L23.4688 11.3818C23.7978 11.9564 23.7973 12.6625 23.4675 13.2366L18.3466 22.1507C18.0315 22.6992 17.2733 22.7812 16.8482 22.3127L12.3451 17.3501C12.1602 17.1463 11.8398 17.1463 11.6549 17.3501L7.15179 22.3127C6.72673 22.7812 5.96846 22.6992 5.65338 22.1507L2.08805 15.9444L0.532547 13.2366C0.202714 12.6625 0.202215 11.9565 0.531237 11.3818Z" fill="url(#paint0_linear_122_7913)"/>
<path d="M5.76695 12.3096L4.95142 13.7076L4.96623 13.7333L5.78333 12.3387L5.76695 12.3096Z" fill="url(#paint1_linear_122_7913)"/>
<path d="M3.23303 13.9407L2.88977 14.5291L3.6935 15.9441L4.04197 15.3246L3.23303 13.9407Z" fill="url(#paint2_linear_122_7913)"/>
<path d="M20.3076 15.9391L21.1081 14.5297L20.7734 13.9562L19.9881 15.3716L20.3076 15.9391Z" fill="url(#paint3_linear_122_7913)"/>
<defs>
<linearGradient id="paint0_linear_122_7913" x1="-0.116505" y1="12.3096" x2="31.8058" y2="18.8339" gradientUnits="userSpaceOnUse">
<stop offset="0.00495377" stop-color="#D900C3"/>
<stop offset="0.261763" stop-color="#8900D9"/>
<stop offset="0.461732" stop-color="#4C42D1"/>
<stop offset="0.773303" stop-color="#1EAEF9"/>
</linearGradient>
<linearGradient id="paint1_linear_122_7913" x1="-0.116545" y1="12.3096" x2="31.8058" y2="18.8338" gradientUnits="userSpaceOnUse">
<stop offset="0.00495377" stop-color="#D900C3"/>
<stop offset="0.261763" stop-color="#8900D9"/>
<stop offset="0.461732" stop-color="#4C42D1"/>
<stop offset="0.773303" stop-color="#1EAEF9"/>
</linearGradient>
<linearGradient id="paint2_linear_122_7913" x1="4.07769" y1="14.8727" x2="2.91264" y2="15.5717" gradientUnits="userSpaceOnUse">
<stop offset="0.296114" stop-color="#B201CE" stop-opacity="0.85"/>
<stop offset="1" stop-opacity="0.7"/>
</linearGradient>
<linearGradient id="paint3_linear_122_7913" x1="21.0873" y1="15.5717" x2="19.4554" y2="14.6411" gradientUnits="userSpaceOnUse">
<stop stop-opacity="0.7"/>
<stop offset="0.435214" stop-color="#347CE7"/>
</linearGradient>
</defs>
</svg>
