<svg width="61" height="61" viewBox="0 0 61 61" fill="none" xmlns="http://www.w3.org/2000/svg">
<path d="M39.65 0H21.35C13.8768 0 10.1402 0 7.28581 1.45438C4.77503 2.73369 2.73369 4.77503 1.45438 7.28581C0 10.1402 0 13.8768 0 21.35V39.65C0 47.1232 0 50.8598 1.45438 53.7142C2.73369 56.225 4.77503 58.2663 7.28581 59.5456C10.1402 61 13.8768 61 21.35 61H39.65C47.1232 61 50.8598 61 53.7142 59.5456C56.225 58.2663 58.2663 56.225 59.5456 53.7142C61 50.8598 61 47.1232 61 39.65V21.35C61 13.8768 61 10.1402 59.5456 7.28581C58.2663 4.77503 56.225 2.73369 53.7142 1.45438C50.8598 0 47.1232 0 39.65 0Z" fill="url(#paint0_linear_122_7915)"/>
<path d="M8.63767 29.3216L19.3401 10.6304L22.9545 12.6534C25.5387 14.0997 26.4484 17.3754 24.9801 19.9472L18.6183 31.0902L17.0637 33.7552L14.713 37.9374L13.1772 35.2621L22.6669 18.6179C23.4017 17.3292 22.9427 15.6886 21.646 14.9682L20.284 14.2115L10.7342 31.0902L14.667 38.0193L20.0619 47.5246L29.1819 37.4344C29.8873 36.6539 31.1127 36.6539 31.8181 37.4344L40.9381 47.5246L46.3364 38.0134L47.8613 35.3266L49.7688 31.9658C50.0771 31.4226 50.0775 30.7575 49.77 30.2139L40.716 14.2115L39.3278 14.9828C38.0296 15.704 37.5713 17.3473 38.309 18.6362L47.8172 35.2495L46.3038 37.9555L43.9363 33.7552L43.905 33.8093L41.042 38.7616C40.4407 39.8017 39.0019 39.9575 38.1918 39.0703L31.156 31.3645C30.8038 30.9787 30.1962 30.9787 29.844 31.3645L22.8082 39.0703C21.9981 39.9575 20.5593 39.8017 19.958 38.7616L17.092 33.8041L18.6496 31.1457L21.6165 36.4203L29.1854 28.0945C29.8903 27.3191 31.1097 27.3191 31.8147 28.0945L39.3835 36.4203L42.3519 31.1431L42.3817 31.0902L36.0199 19.9364C34.5513 17.3615 35.4656 14.0832 38.0547 12.64L41.6599 10.6304L52.3623 29.3216C52.9895 30.417 52.9886 31.7628 52.3598 32.8573L42.5982 49.8497C41.9976 50.8952 40.5522 51.0516 39.7419 50.1586L31.1579 40.6987C30.8053 40.3102 30.1947 40.3102 29.8421 40.6987L21.2581 50.1586C20.4478 51.0516 19.0024 50.8952 18.4018 49.8497L11.6054 38.0189L8.64017 32.8573C8.01142 31.7628 8.01047 30.417 8.63767 29.3216Z" fill="url(#paint1_linear_122_7915)"/>
<path d="M18.6182 31.0901L17.0636 33.7552L17.0918 33.804L18.6494 31.1457L18.6182 31.0901Z" fill="url(#paint2_linear_122_7915)"/>
<path d="M13.788 34.1994L13.1337 35.3211L14.6658 38.0184L15.3301 36.8374L13.788 34.1994Z" fill="url(#paint3_linear_122_7915)"/>
<path d="M46.3363 38.0089L47.8624 35.3223L47.2242 34.229L45.7273 36.9272L46.3363 38.0089Z" fill="url(#paint4_linear_122_7915)"/>
<defs>
<linearGradient id="paint0_linear_122_7915" x1="0" y1="0" x2="59.475" y2="61" gradientUnits="userSpaceOnUse">
<stop stop-color="#4D4D4D"/>
<stop offset="0.640278" stop-color="#1F1F1F"/>
</linearGradient>
<linearGradient id="paint1_linear_122_7915" x1="7.40291" y1="31.0902" x2="68.2549" y2="43.5271" gradientUnits="userSpaceOnUse">
<stop offset="0.00495377" stop-color="#D900C3"/>
<stop offset="0.261763" stop-color="#8900D9"/>
<stop offset="0.461732" stop-color="#4C42D1"/>
<stop offset="0.773303" stop-color="#1EAEF9"/>
</linearGradient>
<linearGradient id="paint2_linear_122_7915" x1="7.4028" y1="31.0901" x2="68.2547" y2="43.527" gradientUnits="userSpaceOnUse">
<stop offset="0.00495377" stop-color="#D900C3"/>
<stop offset="0.261763" stop-color="#8900D9"/>
<stop offset="0.461732" stop-color="#4C42D1"/>
<stop offset="0.773303" stop-color="#1EAEF9"/>
</linearGradient>
<linearGradient id="paint3_linear_122_7915" x1="15.3981" y1="35.9761" x2="13.1773" y2="37.3086" gradientUnits="userSpaceOnUse">
<stop offset="0.296114" stop-color="#B201CE" stop-opacity="0.85"/>
<stop offset="1" stop-opacity="0.7"/>
</linearGradient>
<linearGradient id="paint4_linear_122_7915" x1="47.8227" y1="37.3086" x2="44.7119" y2="35.5346" gradientUnits="userSpaceOnUse">
<stop stop-opacity="0.7"/>
<stop offset="0.435214" stop-color="#347CE7"/>
</linearGradient>
</defs>
</svg>
